<?xml version="1.0" standalone="no"?>
<svg xmlns:xlink="http://www.w3.org/1999/xlink" id="wave" style="transform:rotate(0deg); transition: 0.3s" viewBox="0 0 1440 250" version="1.1" xmlns="http://www.w3.org/2000/svg"><defs><linearGradient id="sw-gradient-0" x1="0" x2="0" y1="1" y2="0"><stop stop-color="rgba(254, 230, 206, 1)" offset="0%"/><stop stop-color="rgba(250, 186, 162, 1)" offset="100%"/></linearGradient></defs><path style="transform:translate(0, 0px); opacity:1" fill="url(#sw-gradient-0)" d="M0,225L48,225C96,225,192,225,288,200C384,175,480,125,576,125C672,125,768,175,864,179.2C960,183,1056,142,1152,104.2C1248,67,1344,33,1440,41.7C1536,50,1632,100,1728,104.2C1824,108,1920,67,2016,79.2C2112,92,2208,158,2304,187.5C2400,217,2496,208,2592,170.8C2688,133,2784,67,2880,45.8C2976,25,3072,50,3168,79.2C3264,108,3360,142,3456,129.2C3552,117,3648,58,3744,33.3C3840,8,3936,17,4032,45.8C4128,75,4224,125,4320,125C4416,125,4512,75,4608,83.3C4704,92,4800,158,4896,179.2C4992,200,5088,175,5184,158.3C5280,142,5376,133,5472,116.7C5568,100,5664,75,5760,79.2C5856,83,5952,117,6048,120.8C6144,125,6240,100,6336,83.3C6432,67,6528,58,6624,45.8C6720,33,6816,17,6864,8.3L6912,0L6912,250L6864,250C6816,250,6720,250,6624,250C6528,250,6432,250,6336,250C6240,250,6144,250,6048,250C5952,250,5856,250,5760,250C5664,250,5568,250,5472,250C5376,250,5280,250,5184,250C5088,250,4992,250,4896,250C4800,250,4704,250,4608,250C4512,250,4416,250,4320,250C4224,250,4128,250,4032,250C3936,250,3840,250,3744,250C3648,250,3552,250,3456,250C3360,250,3264,250,3168,250C3072,250,2976,250,2880,250C2784,250,2688,250,2592,250C2496,250,2400,250,2304,250C2208,250,2112,250,2016,250C1920,250,1824,250,1728,250C1632,250,1536,250,1440,250C1344,250,1248,250,1152,250C1056,250,960,250,864,250C768,250,672,250,576,250C480,250,384,250,288,250C192,250,96,250,48,250L0,250Z"/><defs><linearGradient id="sw-gradient-1" x1="0" x2="0" y1="1" y2="0"><stop stop-color="rgba(239.489, 210.311, 179.913, 1)" offset="0%"/><stop stop-color="rgba(250, 186, 162, 1)" offset="100%"/></linearGradient></defs><path style="transform:translate(0, 50px); opacity:0.9" fill="url(#sw-gradient-1)" d="M0,125L48,141.7C96,158,192,192,288,187.5C384,183,480,142,576,116.7C672,92,768,83,864,95.8C960,108,1056,142,1152,154.2C1248,167,1344,158,1440,166.7C1536,175,1632,200,1728,208.3C1824,217,1920,208,2016,204.2C2112,200,2208,200,2304,183.3C2400,167,2496,133,2592,129.2C2688,125,2784,150,2880,166.7C2976,183,3072,192,3168,179.2C3264,167,3360,133,3456,116.7C3552,100,3648,100,3744,91.7C3840,83,3936,67,4032,54.2C4128,42,4224,33,4320,50C4416,67,4512,108,4608,129.2C4704,150,4800,150,4896,133.3C4992,117,5088,83,5184,66.7C5280,50,5376,50,5472,70.8C5568,92,5664,133,5760,145.8C5856,158,5952,142,6048,145.8C6144,150,6240,175,6336,166.7C6432,158,6528,117,6624,91.7C6720,67,6816,58,6864,54.2L6912,50L6912,250L6864,250C6816,250,6720,250,6624,250C6528,250,6432,250,6336,250C6240,250,6144,250,6048,250C5952,250,5856,250,5760,250C5664,250,5568,250,5472,250C5376,250,5280,250,5184,250C5088,250,4992,250,4896,250C4800,250,4704,250,4608,250C4512,250,4416,250,4320,250C4224,250,4128,250,4032,250C3936,250,3840,250,3744,250C3648,250,3552,250,3456,250C3360,250,3264,250,3168,250C3072,250,2976,250,2880,250C2784,250,2688,250,2592,250C2496,250,2400,250,2304,250C2208,250,2112,250,2016,250C1920,250,1824,250,1728,250C1632,250,1536,250,1440,250C1344,250,1248,250,1152,250C1056,250,960,250,864,250C768,250,672,250,576,250C480,250,384,250,288,250C192,250,96,250,48,250L0,250Z"/><defs><linearGradient id="sw-gradient-2" x1="0" x2="0" y1="1" y2="0"><stop stop-color="rgba(255, 200, 162, 1)" offset="0%"/><stop stop-color="rgba(248.597, 248.597, 248.597, 1)" offset="100%"/></linearGradient></defs><path style="transform:translate(0, 100px); opacity:0.8" fill="url(#sw-gradient-2)" d="M0,25L48,54.2C96,83,192,142,288,170.8C384,200,480,200,576,175C672,150,768,100,864,91.7C960,83,1056,117,1152,108.3C1248,100,1344,50,1440,33.3C1536,17,1632,33,1728,58.3C1824,83,1920,117,2016,112.5C2112,108,2208,67,2304,66.7C2400,67,2496,108,2592,112.5C2688,117,2784,83,2880,66.7C2976,50,3072,50,3168,75C3264,100,3360,150,3456,179.2C3552,208,3648,217,3744,216.7C3840,217,3936,208,4032,183.3C4128,158,4224,117,4320,116.7C4416,117,4512,158,4608,154.2C4704,150,4800,100,4896,79.2C4992,58,5088,67,5184,58.3C5280,50,5376,25,5472,33.3C5568,42,5664,83,5760,91.7C5856,100,5952,75,6048,54.2C6144,33,6240,17,6336,45.8C6432,75,6528,150,6624,158.3C6720,167,6816,108,6864,79.2L6912,50L6912,250L6864,250C6816,250,6720,250,6624,250C6528,250,6432,250,6336,250C6240,250,6144,250,6048,250C5952,250,5856,250,5760,250C5664,250,5568,250,5472,250C5376,250,5280,250,5184,250C5088,250,4992,250,4896,250C4800,250,4704,250,4608,250C4512,250,4416,250,4320,250C4224,250,4128,250,4032,250C3936,250,3840,250,3744,250C3648,250,3552,250,3456,250C3360,250,3264,250,3168,250C3072,250,2976,250,2880,250C2784,250,2688,250,2592,250C2496,250,2400,250,2304,250C2208,250,2112,250,2016,250C1920,250,1824,250,1728,250C1632,250,1536,250,1440,250C1344,250,1248,250,1152,250C1056,250,960,250,864,250C768,250,672,250,576,250C480,250,384,250,288,250C192,250,96,250,48,250L0,250Z"/></svg>